<mxfile host="app.diagrams.net" modified="2023-10-20T06:13:39.033Z" agent="Mozilla/5.0 (Macintosh; Intel Mac OS X 10_15_7) AppleWebKit/537.36 (KHTML, like Gecko) Chrome/118.0.0.0 Safari/537.36" etag="L0FtcpkY5PXhWg5ecElz" version="22.0.5" type="github">
  <diagram name="Page-1" id="qkw5DJyhPiCct4F-kheB">
    <mxGraphModel dx="1468" dy="938" grid="1" gridSize="10" guides="1" tooltips="1" connect="1" arrows="1" fold="1" page="1" pageScale="1" pageWidth="10000" pageHeight="10000" background="#000000" math="0" shadow="0">
      <root>
        <mxCell id="0" />
        <mxCell id="1" parent="0" />
        <mxCell id="0wGWuyDZlZJWTLeVFsEy-1" value="Village" style="whiteSpace=wrap;html=1;align=center;" vertex="1" parent="1">
          <mxGeometry x="280" y="200" width="100" height="40" as="geometry" />
        </mxCell>
        <mxCell id="0wGWuyDZlZJWTLeVFsEy-2" value="&lt;i&gt;&lt;font face=&quot;Times New Roman&quot;&gt;Child Population&lt;/font&gt;&lt;/i&gt;" style="ellipse;whiteSpace=wrap;html=1;align=center;fillColor=#f8cecc;aspect=fixed;direction=east;flipH=0;flipV=0;strokeColor=#b85450;gradientColor=#ea6b66;" vertex="1" parent="1">
          <mxGeometry x="110" y="195" width="120" height="50" as="geometry" />
        </mxCell>
        <mxCell id="0wGWuyDZlZJWTLeVFsEy-3" value="&lt;i&gt;&lt;font face=&quot;Times New Roman&quot;&gt;Located on Island&lt;/font&gt;&lt;/i&gt;" style="ellipse;whiteSpace=wrap;html=1;align=center;fillColor=#f8cecc;aspect=fixed;direction=east;flipH=0;flipV=0;strokeColor=#b85450;gradientColor=#ea6b66;" vertex="1" parent="1">
          <mxGeometry x="160" y="110" width="120" height="50" as="geometry" />
        </mxCell>
        <mxCell id="0wGWuyDZlZJWTLeVFsEy-4" value="&lt;i&gt;&lt;font face=&quot;Times New Roman&quot;&gt;&lt;u&gt;Name&lt;/u&gt;&lt;/font&gt;&lt;/i&gt;" style="ellipse;whiteSpace=wrap;html=1;align=center;fillColor=#f8cecc;aspect=fixed;direction=east;flipH=0;flipV=0;strokeColor=#b85450;gradientColor=#ea6b66;" vertex="1" parent="1">
          <mxGeometry x="290" y="60" width="120" height="50" as="geometry" />
        </mxCell>
        <mxCell id="0wGWuyDZlZJWTLeVFsEy-6" value="&lt;i&gt;&lt;font face=&quot;Times New Roman&quot;&gt;Adult Population&lt;/font&gt;&lt;/i&gt;" style="ellipse;whiteSpace=wrap;html=1;align=center;fillColor=#f8cecc;aspect=fixed;direction=east;flipH=0;flipV=0;strokeColor=#b85450;gradientColor=#ea6b66;" vertex="1" parent="1">
          <mxGeometry x="140" y="290" width="120" height="50" as="geometry" />
        </mxCell>
        <mxCell id="0wGWuyDZlZJWTLeVFsEy-7" value="" style="endArrow=none;html=1;rounded=0;exitX=1;exitY=0.5;exitDx=0;exitDy=0;entryX=0.5;entryY=1;entryDx=0;entryDy=0;strokeColor=#FFFFFF;" edge="1" parent="1" source="0wGWuyDZlZJWTLeVFsEy-6" target="0wGWuyDZlZJWTLeVFsEy-1">
          <mxGeometry relative="1" as="geometry">
            <mxPoint x="290" y="290" as="sourcePoint" />
            <mxPoint x="450" y="290" as="targetPoint" />
          </mxGeometry>
        </mxCell>
        <mxCell id="0wGWuyDZlZJWTLeVFsEy-8" value="" style="endArrow=none;html=1;rounded=0;exitX=1;exitY=0.5;exitDx=0;exitDy=0;entryX=0;entryY=0.5;entryDx=0;entryDy=0;strokeColor=#FFFFFF;" edge="1" parent="1" source="0wGWuyDZlZJWTLeVFsEy-2" target="0wGWuyDZlZJWTLeVFsEy-1">
          <mxGeometry relative="1" as="geometry">
            <mxPoint x="290" y="290" as="sourcePoint" />
            <mxPoint x="450" y="290" as="targetPoint" />
          </mxGeometry>
        </mxCell>
        <mxCell id="0wGWuyDZlZJWTLeVFsEy-9" value="" style="endArrow=none;html=1;rounded=0;exitX=0.5;exitY=0;exitDx=0;exitDy=0;entryX=1;entryY=1;entryDx=0;entryDy=0;strokeColor=#FFFFFF;" edge="1" parent="1" source="0wGWuyDZlZJWTLeVFsEy-1" target="0wGWuyDZlZJWTLeVFsEy-3">
          <mxGeometry relative="1" as="geometry">
            <mxPoint x="270" y="325" as="sourcePoint" />
            <mxPoint x="340" y="250" as="targetPoint" />
          </mxGeometry>
        </mxCell>
        <mxCell id="0wGWuyDZlZJWTLeVFsEy-10" value="" style="endArrow=none;html=1;rounded=0;exitX=0.5;exitY=0;exitDx=0;exitDy=0;entryX=0.5;entryY=1;entryDx=0;entryDy=0;strokeColor=#FFFFFF;" edge="1" parent="1" source="0wGWuyDZlZJWTLeVFsEy-1" target="0wGWuyDZlZJWTLeVFsEy-4">
          <mxGeometry relative="1" as="geometry">
            <mxPoint x="280" y="335" as="sourcePoint" />
            <mxPoint x="350" y="260" as="targetPoint" />
          </mxGeometry>
        </mxCell>
        <mxCell id="0wGWuyDZlZJWTLeVFsEy-11" value="Under Supervision Of" style="shape=rhombus;perimeter=rhombusPerimeter;whiteSpace=wrap;html=1;align=center;fillColor=#3471ea;fontColor=#ffffff;strokeColor=#001DBC;" vertex="1" parent="1">
          <mxGeometry x="540" y="180" width="170" height="80" as="geometry" />
        </mxCell>
        <mxCell id="0wGWuyDZlZJWTLeVFsEy-12" value="Marine Base" style="whiteSpace=wrap;html=1;align=center;" vertex="1" parent="1">
          <mxGeometry x="870" y="200" width="100" height="40" as="geometry" />
        </mxCell>
        <mxCell id="0wGWuyDZlZJWTLeVFsEy-16" value="" style="shape=link;html=1;rounded=0;exitX=1;exitY=0.5;exitDx=0;exitDy=0;entryX=0;entryY=0.5;entryDx=0;entryDy=0;strokeColor=#FFFFFF;" edge="1" parent="1" source="0wGWuyDZlZJWTLeVFsEy-1" target="0wGWuyDZlZJWTLeVFsEy-11">
          <mxGeometry relative="1" as="geometry">
            <mxPoint x="550" y="370" as="sourcePoint" />
            <mxPoint x="710" y="370" as="targetPoint" />
          </mxGeometry>
        </mxCell>
        <mxCell id="0wGWuyDZlZJWTLeVFsEy-17" value="&lt;font style=&quot;background-color: rgb(0, 0, 0);&quot; color=&quot;#ffffff&quot;&gt;N&lt;/font&gt;" style="resizable=0;html=1;whiteSpace=wrap;align=left;verticalAlign=bottom;" connectable="0" vertex="1" parent="0wGWuyDZlZJWTLeVFsEy-16">
          <mxGeometry x="-1" relative="1" as="geometry" />
        </mxCell>
        <mxCell id="0wGWuyDZlZJWTLeVFsEy-18" value="N" style="resizable=0;html=1;whiteSpace=wrap;align=right;verticalAlign=bottom;" connectable="0" vertex="1" parent="0wGWuyDZlZJWTLeVFsEy-16">
          <mxGeometry x="1" relative="1" as="geometry" />
        </mxCell>
        <mxCell id="0wGWuyDZlZJWTLeVFsEy-23" value="" style="endArrow=none;html=1;rounded=0;entryX=0;entryY=0.5;entryDx=0;entryDy=0;exitX=1;exitY=0.5;exitDx=0;exitDy=0;strokeColor=#FFFFFF;" edge="1" parent="1" source="0wGWuyDZlZJWTLeVFsEy-11" target="0wGWuyDZlZJWTLeVFsEy-12">
          <mxGeometry relative="1" as="geometry">
            <mxPoint x="450" y="220" as="sourcePoint" />
            <mxPoint x="610" y="220" as="targetPoint" />
          </mxGeometry>
        </mxCell>
        <mxCell id="0wGWuyDZlZJWTLeVFsEy-24" value="M" style="resizable=0;html=1;whiteSpace=wrap;align=left;verticalAlign=bottom;" connectable="0" vertex="1" parent="0wGWuyDZlZJWTLeVFsEy-23">
          <mxGeometry x="-1" relative="1" as="geometry" />
        </mxCell>
        <mxCell id="0wGWuyDZlZJWTLeVFsEy-25" value="&lt;span style=&quot;background-color: rgb(0, 0, 0);&quot;&gt;&lt;font color=&quot;#ffffff&quot;&gt;1&lt;/font&gt;&lt;/span&gt;" style="resizable=0;html=1;whiteSpace=wrap;align=right;verticalAlign=bottom;" connectable="0" vertex="1" parent="0wGWuyDZlZJWTLeVFsEy-23">
          <mxGeometry x="1" relative="1" as="geometry" />
        </mxCell>
      </root>
    </mxGraphModel>
  </diagram>
</mxfile>
